<svg xmlns="http://www.w3.org/2000/svg" width="53" height="60"><path fill="#ED4457" d="M26.436 59.739c-10.617 0-19.254-8.637-19.254-19.253v-.28h-.42A5.944 5.944 0 0 1 .824 34.27v-2.72a5.944 5.944 0 0 1 5.938-5.937h.42v-8.75c0-3.355 1.553-6.544 4.176-8.623a6.91 6.91 0 0 1-.143-1.399c0-1.222.65-2.478 1.74-3.359a.75.75 0 0 1 .034-.025l.661-.472a.698.698 0 0 1 .073-.045c.103-.056.22-.127.353-.207.623-.373 1.563-.938 3.118-1.412C19.346.616 21.606.206 24.104.066 33.69-.473 42.23 2.35 44.868 6.93c.337.544.567.964.79 1.445 2.156 4.637.404 9.504.03 10.432v6.804h.46a5.944 5.944 0 0 1 5.938 5.938v2.718a5.944 5.944 0 0 1-5.938 5.938h-.46v.28c0 10.616-8.636 19.253-19.252 19.253zM8.597 39.499v.987c0 9.836 8.003 17.838 17.838 17.838 9.836 0 17.838-8.002 17.838-17.838v-5.998H43.02a.706.706 0 0 1-.708-.715c.001-.082.086-8.23-.545-10.754-.57-2.28-2.197-3.19-2.266-3.227a.712.712 0 0 1-.273-.985c.01-.015.971-1.663 1.013-3.242.007-.25-1.04-.865-2.412-1.246-1.503-.312-2.648-.292-2.677-.292H20.417c-2.128 0-3.967-.366-5.466-1.087a6.41 6.41 0 0 1-.723-.408c-.661.765-1.601 2.068-1.599 3.05.004 1.564.997 3.2 1.008 3.216a.708.708 0 0 1-.271.995c-.066.036-1.693.946-2.262 3.226-.632 2.524-.547 10.672-.545 10.754a.707.707 0 0 1-.708.715H8.597v5.01zm37.13-.708h.421a4.527 4.527 0 0 0 4.523-4.522V31.55a4.527 4.527 0 0 0-4.523-4.522h-.42V38.79zM6.761 27.027A4.527 4.527 0 0 0 2.24 31.55v2.718a4.527 4.527 0 0 0 4.522 4.523h.421V27.027h-.42zm36.971 6.046h.541V18.847c-.616-1.344-1.568-2.314-2.628-3.013-.085 1.237-.563 2.423-.89 3.105.714.558 1.885 1.737 2.386 3.737.565 2.263.598 8.303.591 10.397zm-35.135 0h.542c-.006-2.093.026-8.134.592-10.397.498-1.993 1.663-3.17 2.378-3.732-.36-.729-.891-2.03-.894-3.359-.004-1.502 1.194-3.114 1.918-3.952a6.659 6.659 0 0 1-1.316-1.932 9.617 9.617 0 0 0-3.22 7.161v16.211zM35.26 12.588c.96 0 6.67.18 9.55 4.333.1-.381.201-.825.284-1.314-.83-.81-3.83-3.456-8.292-4.305-3.12-.593-6.804-.363-10.368-.14-2.65.164-5.39.336-7.816.15-2.353-.178-3.984-.792-5.1-1.479a5.12 5.12 0 0 0 2.079 1.826c1.3.618 2.92.93 4.817.93h14.847zM32.064 9.51c1.733 0 3.423.103 5.002.403 3.922.745 6.759 2.718 8.212 3.948.025-.623.007-1.282-.077-1.957-1.972-1.975-5.47-3.352-10.139-3.988-2.471-.337-5.29.047-8.275.453-3.008.409-6.117.832-8.915.464-3.103-.409-4.526-1.526-5.174-2.528-.044.18-.068.36-.068.537 0 .067.001.133.004.2.23.445 1.537 2.514 6.092 2.86 2.33.177 4.9.017 7.62-.153 1.9-.118 3.835-.239 5.718-.239zm.951-3.135c.768 0 1.517.04 2.238.14 3.955.538 7.152 1.606 9.4 3.124a9.34 9.34 0 0 0-.278-.665 11.757 11.757 0 0 0-.737-1.342C41.29 3.564 33.115.977 24.183 1.478c-2.377.134-4.522.524-6.559 1.191l-.025.008a11.61 11.61 0 0 0-2.795 1.27c-.136.081-.257.154-.366.214l-.608.435a3.777 3.777 0 0 0-.238.212c.089.557.679 2.123 4.465 2.621 2.61.344 5.624-.067 8.54-.463 2.148-.293 4.35-.592 6.418-.592zm-9.014 40.618a25.04 25.04 0 0 1-2.352-.098.707.707 0 0 1 .143-1.408c.092.009 9.199.875 13.734-3.264a2.474 2.474 0 0 0-.675-.396.708.708 0 0 1 .517-1.318 3.869 3.869 0 0 1 2.446 3.223l.016.159a.708.708 0 0 1-1.408.144l-.016-.16a2.52 2.52 0 0 0-.09-.46C32.77 46.509 27.16 46.993 24 46.993zm-3.91-11.841a4.316 4.316 0 0 1-4.31-4.311 4.316 4.316 0 0 1 4.31-4.31 4.316 4.316 0 0 1 4.31 4.31 4.315 4.315 0 0 1-4.31 4.31zm0-7.207a2.899 2.899 0 0 0-2.896 2.896 2.9 2.9 0 0 0 2.896 2.896 2.9 2.9 0 0 0 2.895-2.896 2.899 2.899 0 0 0-2.895-2.896zm17.501 3.833a.708.708 0 0 1-.658-.448c-.031-.076-.689-1.584-3.07-1.584-2.418 0-3.157 1.517-3.188 1.582a.711.711 0 0 1-.935.347.704.704 0 0 1-.356-.926c.044-.099 1.106-2.418 4.478-2.418 3.398 0 4.35 2.384 4.39 2.486a.708.708 0 0 1-.66.96zm-17.501-.159a.707.707 0 0 1-.708-.707v-.071a.707.707 0 1 1 1.415 0v.07a.707.707 0 0 1-.707.708zm16.342-7.013a.7.7 0 0 1-.281-.059l-5.243-2.277a.707.707 0 1 1 .564-1.298l5.242 2.277a.707.707 0 0 1-.282 1.357zm-19.945-.81a.706.706 0 0 1-.363-1.315l4.905-2.934a.708.708 0 1 1 .727 1.214l-4.906 2.934a.706.706 0 0 1-.363.1z"/></svg>