<svg xmlns="http://www.w3.org/2000/svg" width="52" height="60"><path fill="#ED4457" d="M25.888 59.739c-10.616 0-19.253-8.637-19.253-19.253v-.28h-.421a5.944 5.944 0 0 1-5.937-5.938V31.55a5.944 5.944 0 0 1 5.937-5.938h.42v-8.75c0-3.354 1.553-6.543 4.176-8.622a6.91 6.91 0 0 1-.143-1.399c0-1.223.65-2.478 1.741-3.359a.75.75 0 0 1 .034-.025l.66-.472a.719.719 0 0 1 .073-.046c.103-.056.22-.126.354-.206.622-.373 1.562-.937 3.117-1.412C18.8.617 21.06.206 23.557.066 33.14-.473 41.68 2.35 44.32 6.929c.338.546.568.966.792 1.447 2.156 4.637.403 9.504.03 10.432v6.805h.46a5.944 5.944 0 0 1 5.937 5.937v2.719a5.944 5.944 0 0 1-5.937 5.937h-.46v.28c0 10.616-8.637 19.253-19.253 19.253zM8.05 39.499v.987c0 9.836 8.002 17.838 17.838 17.838s17.838-8.002 17.838-17.838v-5.998h-1.254a.707.707 0 0 1-.707-.715c0-.082.086-8.23-.546-10.754-.57-2.28-2.196-3.19-2.265-3.227a.712.712 0 0 1-.274-.985c.01-.015.972-1.663 1.014-3.242.006-.246-1.011-.846-2.356-1.23-1.53-.326-2.707-.31-2.735-.308H19.87c-2.129 0-3.968-.366-5.466-1.088a6.474 6.474 0 0 1-.723-.407c-.66.764-1.6 2.067-1.598 3.05.004 1.563.997 3.199 1.007 3.215a.708.708 0 0 1-.271.996c-.065.036-1.692.946-2.262 3.226-.63 2.523-.546 10.672-.545 10.754a.707.707 0 0 1-.708.715H8.05v5.01zm37.13-.708h.42a4.527 4.527 0 0 0 4.523-4.522V31.55a4.527 4.527 0 0 0-4.522-4.522h-.421V38.79zM6.214 27.027a4.527 4.527 0 0 0-4.522 4.523v2.718a4.527 4.527 0 0 0 4.522 4.523h.42V27.027h-.42zm36.97 6.046h.542V18.847c-.615-1.341-1.567-2.31-2.629-3.008-.085 1.235-.563 2.419-.89 3.1.715.558 1.886 1.737 2.386 3.737.566 2.263.598 8.303.592 10.397zm-35.134 0h.541c-.006-2.093.026-8.134.592-10.397.499-1.993 1.663-3.17 2.379-3.732-.36-.729-.892-2.03-.895-3.359-.004-1.502 1.194-3.114 1.918-3.952a6.659 6.659 0 0 1-1.315-1.931 9.616 9.616 0 0 0-3.22 7.16v16.211zm26.663-20.485c.96 0 6.669.181 9.55 4.334.1-.382.2-.825.283-1.315-.83-.81-3.83-3.456-8.292-4.305-3.12-.593-6.804-.363-10.368-.14-2.649.164-5.389.336-7.816.15-2.353-.178-3.983-.792-5.1-1.479a5.118 5.118 0 0 0 2.08 1.826c1.299.618 2.92.93 4.817.93h14.846zM31.516 9.51c1.734 0 3.423.103 5.002.403 3.922.745 6.76 2.718 8.213 3.948.025-.623.007-1.282-.077-1.957-1.973-1.975-5.47-3.352-10.14-3.988-2.471-.337-5.29.047-8.274.453-3.008.409-6.117.832-8.915.464-3.104-.409-4.526-1.526-5.174-2.528-.045.18-.068.36-.068.537 0 .066 0 .133.003.2.23.444 1.537 2.514 6.092 2.86 2.33.177 4.9.017 7.62-.153 1.901-.118 3.835-.239 5.718-.239zm.952-3.135c.768 0 1.516.04 2.237.14 3.955.538 7.152 1.606 9.4 3.124a9.34 9.34 0 0 0-.277-.665 11.757 11.757 0 0 0-.736-1.34C40.748 3.567 32.572.979 23.635 1.479c-2.376.134-4.522.524-6.559 1.191a11.608 11.608 0 0 0-2.82 1.277c-.136.082-.257.155-.365.215l-.61.435a3.7 3.7 0 0 0-.237.212c.089.557.679 2.123 4.465 2.621 2.61.344 5.624-.067 8.54-.463 2.148-.293 4.351-.592 6.419-.592zm-6.58 42.423a4.356 4.356 0 0 1-4.352-4.351c0-.391.317-.708.708-.708h7.288c.39 0 .707.317.707.708a4.356 4.356 0 0 1-4.351 4.351zm-2.85-3.644a2.942 2.942 0 0 0 2.85 2.229c1.375 0 2.532-.95 2.85-2.229h-5.7zm9.805-8.896a.708.708 0 0 1-.169-.02c-.211-.052-5.187-1.317-5.187-5.387 0-2.24 1.188-3.577 3.18-3.577 1.025 0 1.729.386 2.176.77.446-.384 1.15-.77 2.175-.77 1.992 0 3.18 1.337 3.18 3.577 0 4.07-4.976 5.335-5.187 5.387a.7.7 0 0 1-.168.02zm-2.176-7.57c-1.171 0-1.765.728-1.765 2.163 0 2.622 3.165 3.732 3.94 3.965.771-.234 3.942-1.354 3.942-3.965 0-1.435-.594-2.162-1.765-2.162-1.11 0-1.536.735-1.553.766a.742.742 0 0 1-.631.366.708.708 0 0 1-.62-.375c-.012-.022-.439-.757-1.548-.757zm-11.864 7.57a.708.708 0 0 1-.169-.02c-.211-.052-5.188-1.317-5.188-5.387 0-2.24 1.19-3.577 3.18-3.577 1.025 0 1.73.386 2.176.77.447-.384 1.15-.77 2.176-.77 1.992 0 3.18 1.337 3.18 3.577 0 4.07-4.976 5.335-5.187 5.387a.703.703 0 0 1-.168.02zm-2.176-7.57c-1.172 0-1.765.728-1.765 2.163 0 2.622 3.165 3.732 3.94 3.965.771-.234 3.942-1.354 3.942-3.965 0-1.435-.594-2.162-1.765-2.162-1.11 0-1.536.735-1.553.766a.717.717 0 0 1-.62.366h-.011a.707.707 0 0 1-.62-.375c-.013-.022-.44-.757-1.548-.757zm18.869-3.885a.707.707 0 0 1-.309-.07l-5.306-2.574a.707.707 0 0 1 .617-1.274l5.307 2.574a.707.707 0 0 1-.31 1.344zm-19.346 0a.707.707 0 0 1-.31-1.344l5.307-2.574a.708.708 0 0 1 .618 1.274l-5.307 2.573a.703.703 0 0 1-.308.071z"/></svg>