<svg xmlns="http://www.w3.org/2000/svg" xmlns:xlink="http://www.w3.org/1999/xlink" width="90" height="30"><defs><path id="a" d="M.733.021h20.559V19H.733z"/><path id="c" d="M.682.021H21.24V19H.682z"/><path id="e" d="M0 .397h20.383V27H.001z"/><path id="g" d="M.663.397H21.31V27H.663z"/></defs><g fill="none" fill-rule="evenodd"><g transform="translate(22 8)"><mask id="b" fill="#fff"><use xlink:href="#a"/></mask><path fill="#131313" d="M11.013 14.663c-2.89 0-5.231-2.307-5.231-5.154 0-2.843 2.342-5.151 5.23-5.151 2.89 0 5.231 2.308 5.231 5.151 0 2.847-2.342 5.154-5.23 5.154M19.97 4.61c-.882-1.438-2.1-2.563-3.652-3.375C14.763.426 13 .021 11.029.021c-1.971 0-3.738.405-5.305 1.215-1.564.812-2.787 1.937-3.669 3.375C1.173 6.051.733 7.685.733 9.51c0 1.829.44 3.46 1.322 4.9.882 1.439 2.105 2.564 3.67 3.374S9.057 19 11.028 19c1.972 0 3.734-.407 5.289-1.218 1.552-.81 2.77-1.935 3.652-3.374.88-1.44 1.322-3.071 1.322-4.9 0-1.825-.442-3.458-1.322-4.898" mask="url(#b)"/></g><g transform="translate(68 8)"><mask id="d" fill="#fff"><use xlink:href="#c"/></mask><path fill="#131313" d="M10.961 14.663c-2.889 0-5.23-2.307-5.23-5.154 0-2.843 2.341-5.151 5.23-5.151 2.889 0 5.231 2.308 5.231 5.151 0 2.847-2.342 5.154-5.23 5.154M19.918 4.61c-.884-1.438-2.099-2.563-3.652-3.375C14.713.426 12.95.021 10.978.021c-1.97 0-3.738.405-5.304 1.215-1.565.812-2.788 1.937-3.67 3.375C1.124 6.051.682 7.685.682 9.51c0 1.829.442 3.46 1.322 4.9.882 1.439 2.105 2.564 3.67 3.374C7.24 18.594 9.008 19 10.978 19c1.972 0 3.735-.407 5.289-1.218 1.553-.81 2.768-1.935 3.652-3.374.88-1.44 1.321-3.071 1.321-4.9 0-1.825-.441-3.458-1.321-4.898" mask="url(#d)"/></g><mask id="f" fill="#fff"><use xlink:href="#e"/></mask><path fill="#131313" d="M10.192 22.609A5.224 5.224 0 0 1 4.96 17.39c0-2.879 2.342-5.216 5.23-5.216 2.89 0 5.232 2.337 5.232 5.216a5.224 5.224 0 0 1-5.231 5.218m8.974-10.264A8.617 8.617 0 0 0 15.81 8.98c-1.425-.798-3.008-1.196-4.747-1.196-1.467 0-3.83.434-5.636 1.962V.396H.001v26.327h5.182V24.57C6.526 26.19 8.488 27 11.062 27c1.74 0 3.322-.4 4.747-1.198a8.606 8.606 0 0 0 3.357-3.365c.813-1.444 1.217-3.127 1.217-5.047 0-1.919-.404-3.601-1.217-5.046" mask="url(#f)"/><g transform="translate(45)"><mask id="h" fill="#fff"><use xlink:href="#g"/></mask><path fill="#131313" d="M5.687 17.391c0-2.88 2.373-5.216 5.301-5.216 2.926 0 5.299 2.336 5.299 5.216 0 2.882-2.373 5.218-5.299 5.218-2.928 0-5.3-2.336-5.3-5.218m-5.025 0c0 1.92.411 3.603 1.232 5.048a8.654 8.654 0 0 0 3.4 3.363c1.445.8 3.05 1.198 4.81 1.198 2.61 0 4.594-.808 5.956-2.428v2.15h5.25V.395h-5.497v9.35c-1.83-1.528-4.223-1.962-5.709-1.962-1.76 0-3.365.399-4.81 1.197a8.669 8.669 0 0 0-3.4 3.365C1.075 13.79.663 15.473.663 17.39" mask="url(#h)"/></g></g></svg>