<?xml version="1.0" encoding="UTF-8"?>
<svg width="14px" height="14px" viewBox="0 0 14 14" version="1.1" xmlns="http://www.w3.org/2000/svg" xmlns:xlink="http://www.w3.org/1999/xlink">
    <!-- Generator: Sketch 46.2 (44496) - http://www.bohemiancoding.com/sketch -->
    <title>Fill 1</title>
    <desc>Created with Sketch.</desc>
    <defs></defs>
    <g id="Search-results" stroke="none" stroke-width="1" fill="none" fill-rule="evenodd">
        <g id="Sökresultat" transform="translate(-1228.000000, -39.000000)" fill="#5B6367">
            <path d="M1237.58816,41.5513158 C1238.56429,42.5268947 1239.05245,43.7028947 1239.05263,45.0789474 C1239.05337,45.4691053 1239.01339,45.8436053 1238.93289,46.2026316 C1238.73487,47.1032368 1238.28982,47.8951579 1237.59737,48.5789474 L1237.57895,48.5973684 C1236.61663,49.5672368 1235.45003,50.0522632 1234.07895,50.0526316 C1232.70289,50.0524474 1231.52708,49.5642895 1230.55132,48.5881579 C1229.58716,47.6245526 1229.10526,46.4548158 1229.10526,45.0789474 C1229.10508,43.7027105 1229.58697,42.5268947 1230.55132,41.5513158 C1231.52689,40.5869737 1232.70271,40.1048947 1234.07895,40.1052632 C1235.45482,40.1050789 1236.62455,40.5871579 1237.58816,41.5513158 M1242,52.4473684 C1242.00018,52.2944737 1241.94492,52.1625789 1241.83421,52.0513158 L1238.74868,48.9657895 C1239.38955,48.2201053 1239.81029,47.379 1240.01053,46.4421053 L1240.01053,46.4328947 C1240.10816,45.9998158 1240.15716,45.5486842 1240.15789,45.0789474 C1240.15808,43.3972895 1239.56253,41.9602632 1238.37105,40.7684211 C1237.19192,39.5896579 1235.76116,39.0001842 1234.07895,39 C1232.39729,39.0003684 1230.96045,39.5898421 1229.76842,40.7684211 C1228.58984,41.9604474 1228.00037,43.3972895 1228,45.0789474 C1228.00018,46.7611579 1228.58966,48.1917368 1229.76842,49.3710526 C1230.96045,50.5625263 1232.39711,51.1580789 1234.07895,51.1578947 C1235.57308,51.1582632 1236.86863,50.6887105 1237.96579,49.7486842 L1241.05132,52.8342105 C1241.16239,52.9451053 1241.29447,53.0001842 1241.44737,53 C1241.60026,53.0001842 1241.72903,52.9451053 1241.83421,52.8342105 C1241.94492,52.7292105 1242.00018,52.6000789 1242,52.4473684" id="Fill-1"></path>
        </g>
    </g>
</svg>