<svg xmlns="http://www.w3.org/2000/svg" width="53" height="60"><path fill="#ED4457" d="M26.497 60c-10.77 0-19.53-8.675-19.53-19.337v-.281h-.428c-3.32 0-6.023-2.675-6.023-5.964v-2.73c0-3.288 2.702-5.963 6.023-5.963h.427v-8.79c0-3.368 1.575-6.571 4.236-8.659a6.854 6.854 0 0 1-.145-1.405c0-1.228.66-2.489 1.766-3.374a.959.959 0 0 1 .034-.025l.67-.474a.764.764 0 0 1 .074-.046c.104-.056.222-.126.358-.207a13.145 13.145 0 0 1 3.163-1.418c2.183-.708 4.476-1.12 7.01-1.261 9.726-.54 18.384 2.294 21.062 6.893.342.548.575.97.802 1.453 2.188 4.658.409 9.547.031 10.478v6.834h.466c3.321 0 6.023 2.675 6.023 5.964v2.73c0 3.288-2.702 5.964-6.023 5.964h-.466v.28C46.027 51.325 37.266 60 26.497 60zM8.402 39.671v.992c0 9.879 8.117 17.916 18.095 17.916 9.977 0 18.095-8.037 18.095-17.916v-6.024H43.32a.722.722 0 0 1-.51-.21.707.707 0 0 1-.207-.509c0-.082.087-8.266-.553-10.8-.586-2.32-2.278-3.23-2.295-3.24a.71.71 0 0 1-.281-.99c.01-.016.985-1.67 1.028-3.258.007-.247-1.022-.849-2.383-1.232-1.555-.33-2.75-.313-2.78-.312H20.39c-2.159 0-4.024-.367-5.544-1.092a6.56 6.56 0 0 1-.733-.41c-.67.768-1.624 2.077-1.622 3.064.004 1.57 1.012 3.213 1.022 3.23a.707.707 0 0 1-.275 1c-.066.035-1.717.95-2.295 3.24-.64 2.534-.554 10.718-.553 10.8a.707.707 0 0 1-.207.508.722.722 0 0 1-.51.21H8.402v5.033zm37.664-.71h.428c2.53 0 4.587-2.038 4.587-4.543v-2.73c0-2.505-2.058-4.542-4.587-4.542h-.428V38.96zM6.54 27.146c-2.53 0-4.587 2.037-4.587 4.542v2.73c0 2.505 2.058 4.543 4.587 4.543h.427V27.146H6.54zm37.504 6.072h.549V18.93c-.624-1.348-1.59-2.32-2.667-3.022-.086 1.241-.571 2.43-.903 3.114.725.56 1.913 1.744 2.42 3.753.574 2.273.607 8.34.6 10.443zm-35.641 0h.55c-.007-2.103.026-8.17.6-10.443.505-2.002 1.686-3.185 2.412-3.748-.365-.732-.904-2.038-.908-3.374-.003-1.508 1.212-3.128 1.946-3.969a6.691 6.691 0 0 1-1.334-1.94 9.617 9.617 0 0 0-3.266 7.192v16.282zM35.45 12.643c.973 0 6.765.182 9.687 4.353.102-.384.204-.829.288-1.321-.843-.812-3.885-3.471-8.412-4.323-3.164-.596-6.902-.365-10.517-.142-2.687.166-5.466.338-7.928.152-2.387-.18-4.042-.796-5.173-1.486a5.177 5.177 0 0 0 2.108 1.834c1.318.62 2.963.935 4.887.935h14.929c.018 0 .063-.002.13-.002zm-3.243-3.092c1.759 0 3.473.103 5.075.404 3.978.749 6.856 2.73 8.33 3.966a11.98 11.98 0 0 0-.078-1.966c-2.001-1.983-5.55-3.366-10.285-4.005-2.508-.338-5.367.047-8.394.455-3.05.41-6.205.836-9.044.466-3.148-.41-4.591-1.533-5.249-2.54a2.253 2.253 0 0 0-.069.54c0 .067.001.134.004.2.233.447 1.558 2.526 6.18 2.874 2.363.178 4.97.017 7.73-.154 1.928-.119 3.89-.24 5.8-.24zm.966-3.15c.778 0 1.538.042 2.27.14 4.011.542 7.254 1.615 9.535 3.14a9.15 9.15 0 0 0-.282-.669 11.85 11.85 0 0 0-.746-1.345C41.57 3.582 33.272.981 24.212 1.485c-2.411.134-4.588.525-6.654 1.196a.427.427 0 0 1-.025.008c-1.405.425-2.265.936-2.836 1.275-.137.082-.26.155-.37.215l-.618.436a3.66 3.66 0 0 0-.241.214c.09.56.689 2.132 4.529 2.632 2.648.345 5.706-.067 8.663-.465 2.18-.293 4.414-.594 6.512-.594zm-.68 44.426a.72.72 0 0 1-.38-.108l-5.381-3.33-5.382 3.33a.722.722 0 0 1-.989-.226.707.707 0 0 1 .228-.98l4.789-2.962-4.789-2.963a.707.707 0 0 1-.228-.98.722.722 0 0 1 .99-.226l5.38 3.33 5.382-3.33a.722.722 0 0 1 .99.226.707.707 0 0 1-.229.98l-4.788 2.963 4.788 2.963a.707.707 0 0 1 .228.98.719.719 0 0 1-.609.333zm1-15.523c-2.412 0-4.374-1.942-4.374-4.329 0-2.387 1.962-4.33 4.373-4.33 2.412 0 4.373 1.943 4.373 4.33s-1.961 4.33-4.373 4.33zm0-7.238c-1.62 0-2.938 1.305-2.938 2.909 0 1.603 1.318 2.908 2.937 2.908 1.62 0 2.938-1.305 2.938-2.908 0-1.604-1.318-2.909-2.938-2.909zM20.06 35.304c-2.411 0-4.373-1.942-4.373-4.329 0-2.387 1.962-4.33 4.373-4.33 2.41 0 4.373 1.943 4.373 4.33s-1.962 4.33-4.373 4.33zm0-7.238c-1.62 0-2.937 1.305-2.937 2.909 0 1.603 1.317 2.908 2.937 2.908 1.62 0 2.937-1.305 2.937-2.908 0-1.604-1.318-2.909-2.937-2.909zm13.43 3.69a.714.714 0 0 1-.717-.71v-.071c0-.393.32-.71.717-.71.397 0 .718.317.718.71v.07a.714.714 0 0 1-.718.711zm-13.43 0a.714.714 0 0 1-.718-.71v-.071c0-.393.321-.71.718-.71.396 0 .718.317.718.71v.07a.715.715 0 0 1-.718.711zm15.933-7.858a.718.718 0 0 1-.368-.1l-4.977-2.947a.707.707 0 0 1-.247-.975.722.722 0 0 1 .984-.245l4.977 2.947c.34.201.45.638.247.975a.72.72 0 0 1-.616.345zm-19.588 0a.719.719 0 0 1-.616-.345.707.707 0 0 1 .247-.975l4.976-2.947a.722.722 0 0 1 .985.245.707.707 0 0 1-.248.975l-4.976 2.947a.72.72 0 0 1-.368.1z"/></svg>